<svg width="92" height="34" viewBox="0 0 92 34" fill="none" xmlns="http://www.w3.org/2000/svg">
<path fill-rule="evenodd" clip-rule="evenodd" d="M0.627304 5.23131V1.07861H1.66492L2.28436 3.91342L2.90305 1.07861H3.96079V5.23131H3.30185V1.95671L2.62352 5.23131H1.94445L1.26612 1.95671V5.23131H0.627304ZM4.61974 5.23131V1.07861H5.3182V5.23131H4.61974ZM5.99727 5.23131V1.07861H6.67634L8.07399 3.85379V1.07861H8.73219V5.23131H8.03374L6.63609 2.5359V5.23131H5.99727ZM9.43139 5.23131V1.07861H10.1298V5.23131H9.43139ZM10.6293 3.8933L11.3083 3.81354C11.3486 4.07369 11.4284 4.27271 11.5476 4.41285C11.6814 4.54247 11.8608 4.61423 12.0471 4.61263C12.2662 4.61263 12.4458 4.55224 12.5659 4.43298C12.664 4.32248 12.7204 4.18115 12.7254 4.03344C12.7271 3.94338 12.7066 3.85429 12.6657 3.77403C12.5898 3.70017 12.5022 3.63946 12.4063 3.59439C12.2186 3.53904 12.0321 3.47914 11.8473 3.41474C11.4679 3.31486 11.2085 3.17472 11.0691 3.0152C10.8573 2.78797 10.7426 2.48711 10.7493 2.17661C10.7493 1.95671 10.7895 1.75768 10.8894 1.57729C10.9893 1.3969 11.1488 1.25751 11.3285 1.15837C11.5081 1.05849 11.7474 1.01823 12.0075 1.01823C12.4466 1.01823 12.7664 1.11812 12.9855 1.35814C13.2047 1.5773 13.3247 1.89708 13.3247 2.2765L12.6255 2.31675C12.6061 2.09685 12.5457 1.93733 12.4458 1.83745C12.3188 1.7439 12.1645 1.69466 12.0068 1.69731C11.7869 1.69731 11.6274 1.75768 11.5275 1.85682C11.4477 1.91646 11.4075 1.99696 11.4075 2.11623C11.4075 2.21611 11.4477 2.29588 11.5074 2.35626C11.6073 2.45614 11.8272 2.55603 12.1462 2.63579C12.4854 2.73567 12.7448 2.83556 12.905 2.9347C13.0645 3.05471 13.2047 3.1941 13.2844 3.37375C13.3843 3.53326 13.4246 3.77329 13.4246 4.03269C13.4246 4.27197 13.3649 4.49186 13.2651 4.69164C13.145 4.91079 13.0049 5.05093 12.8059 5.15081C12.5678 5.25936 12.3087 5.31384 12.0471 5.31033C11.608 5.31033 11.2681 5.19032 11.0489 4.95104C10.8089 4.71251 10.6695 4.35247 10.6293 3.8933ZM14.782 5.23131V1.77781H13.7637V1.07861H16.4987V1.77781H15.4804V5.23131H14.782ZM16.9578 5.23131V1.07861H19.5131V1.77781H17.6563V2.71629H19.3737V3.41549H17.6563V4.53361H19.5727V5.23281H16.9578V5.23131ZM17.8359 0.838591L18.1557 0H18.8944L18.2556 0.838591H17.8359ZM20.1721 5.23131V1.07861H21.6293C22.0088 1.07861 22.2682 1.11812 22.4277 1.19863C22.6073 1.25826 22.7273 1.39839 22.8272 1.59817C22.9271 1.77781 22.9867 1.99771 22.9867 2.23699C22.9867 2.55677 22.907 2.81617 22.7475 3.01594C22.6073 3.21571 22.3681 3.35511 22.0684 3.39536C22.2279 3.51537 22.3479 3.63464 22.4478 3.75465C22.5477 3.87466 22.6871 4.11394 22.8474 4.43372L23.2663 5.23206H22.4277L21.9283 4.33384C21.7486 4.01406 21.6293 3.81429 21.5697 3.7144C21.49 3.63464 21.4296 3.57426 21.3498 3.55488C21.2701 3.51537 21.1702 3.49525 21.0107 3.49525H20.8705V5.23206H20.1721V5.23131ZM20.8713 2.83556H21.3699C21.7091 2.83556 21.929 2.81543 22.0088 2.7953C22.0869 2.75702 22.1501 2.69382 22.1884 2.61566C22.248 2.5359 22.2682 2.41589 22.2682 2.29662C22.2688 2.17599 22.2341 2.05782 22.1683 1.95671C22.1379 1.91411 22.0993 1.87803 22.0548 1.85063C22.0102 1.82323 21.9606 1.80506 21.9089 1.7972C21.8492 1.7972 21.6897 1.77781 21.4095 1.77781H20.8705V2.83556H20.8713ZM23.6256 5.23131V1.07861H24.324V5.23131H23.6256ZM24.8436 3.19485C24.8436 2.7558 24.8838 2.39651 25.0031 2.11698C25.0829 1.91721 25.1827 1.71744 25.3229 1.55792C25.4429 1.37827 25.6024 1.25826 25.7619 1.1785C25.9818 1.05849 26.2211 1.01823 26.5006 1.01823C27.0202 1.01823 27.419 1.19788 27.7194 1.57729C28.0384 1.95671 28.1778 2.49565 28.1778 3.15459C28.1778 3.83367 28.0377 4.35247 27.7194 4.73189C27.58 4.91655 27.3987 5.06538 27.1904 5.16609C26.9821 5.2668 26.7528 5.3165 26.5215 5.31108C26.0019 5.31108 25.6031 5.1113 25.2834 4.75202C24.9837 4.37334 24.8436 3.85379 24.8436 3.19485ZM25.5622 3.15459C25.5622 3.6339 25.6419 3.99318 25.8216 4.23246C26.0012 4.47249 26.2412 4.59175 26.5208 4.59175C26.7802 4.59175 27.0202 4.47249 27.1991 4.23246C27.378 3.99318 27.4585 3.6339 27.4585 3.15459C27.4585 2.67529 27.3787 2.316 27.1991 2.07673C27.1236 1.96774 27.0219 1.87953 26.9034 1.82025C26.7848 1.76097 26.6532 1.73253 26.5208 1.73756C26.2211 1.73756 26.0012 1.83745 25.8216 2.07673C25.6419 2.31675 25.5622 2.67604 25.5622 3.15459ZM30.054 1.07861H31.3324C31.6119 1.07861 31.8303 1.09874 31.9906 1.15837C32.1904 1.23813 32.3708 1.35815 32.5102 1.53779C32.6503 1.71744 32.7696 1.95671 32.8292 2.21686C32.909 2.47626 32.9485 2.81543 32.9485 3.19485C32.9485 3.53476 32.909 3.83366 32.8493 4.09381C32.7487 4.39272 32.6294 4.63275 32.4692 4.81239C32.3499 4.95253 32.1896 5.0718 31.9899 5.1523C31.8296 5.21194 31.6306 5.23206 31.3712 5.23206H30.0533V1.07861H30.054ZM30.7532 1.77781V4.53286H31.2728C31.4725 4.53286 31.6119 4.53286 31.6917 4.49261C31.8017 4.47667 31.9015 4.41968 31.9712 4.3331C32.0495 4.25334 32.1099 4.11319 32.1501 3.91417C32.2098 3.73452 32.2299 3.47512 32.2299 3.15534C32.2299 2.8363 32.2098 2.59628 32.1501 2.41663C32.1179 2.27281 32.057 2.13694 31.9712 2.01709C31.8777 1.92109 31.76 1.85208 31.6306 1.81732C31.5508 1.7972 31.351 1.77781 31.0715 1.77781H30.7532ZM33.4084 3.19485C33.4084 2.7558 33.4479 2.39651 33.5485 2.11698C33.6283 1.91721 33.7483 1.71744 33.8676 1.55792C34.0077 1.37827 34.1672 1.25826 34.3275 1.1785C34.5459 1.05849 34.7859 1.01823 35.0654 1.01823C35.5649 1.01823 35.9838 1.19788 36.2827 1.57729C36.5824 1.95671 36.7426 2.49565 36.7426 3.15459C36.7426 3.83367 36.5824 4.35247 36.2827 4.73189C35.9845 5.1113 35.5835 5.31108 35.0863 5.31108C34.5668 5.31108 34.1471 5.1113 33.8474 4.75202C33.5485 4.37334 33.4084 3.85379 33.4084 3.19485ZM34.1076 3.15459C34.1076 3.6339 34.2067 3.99318 34.3871 4.23246C34.566 4.47249 34.7859 4.59175 35.0654 4.59175C35.345 4.59175 35.5835 4.47249 35.7646 4.23246C35.9249 3.99318 36.024 3.6339 36.024 3.15459C36.024 2.67529 35.9443 2.316 35.7646 2.07673C35.5842 1.83745 35.3658 1.73756 35.0654 1.73756C34.7859 1.73756 34.5459 1.83745 34.3871 2.07673C34.2067 2.31675 34.1076 2.67604 34.1076 3.15459ZM38.6196 5.23131V1.07861H41.1741V1.77781H39.318V2.71554H41.0548V3.41474H39.318V4.53212H41.2546V5.23131H38.6196ZM41.6534 3.8933L42.3317 3.81354C42.3727 4.07369 42.4525 4.27271 42.5926 4.41285C42.7119 4.53286 42.8722 4.61263 43.0906 4.61263C43.3105 4.61263 43.4909 4.55224 43.59 4.43298C43.6453 4.38186 43.6898 4.32016 43.7207 4.25152C43.7517 4.18288 43.7686 4.10872 43.7704 4.03344C43.7746 3.94034 43.7464 3.84866 43.6906 3.77403C43.6496 3.71366 43.5699 3.65402 43.4506 3.59439C43.2619 3.54193 43.0754 3.482 42.8915 3.41474C42.5129 3.31486 42.2542 3.17472 42.0939 3.0152C41.8942 2.77518 41.7734 2.49565 41.7734 2.17661C41.7734 1.95671 41.8345 1.75768 41.9337 1.57729C42.0343 1.39765 42.1737 1.25751 42.3735 1.15837C42.5524 1.05849 42.7723 1.01823 43.0317 1.01823C43.4715 1.01823 43.7905 1.11812 44.0097 1.35814C44.2296 1.5773 44.3488 1.89708 44.369 2.2765L43.6698 2.31675C43.6302 2.09685 43.5691 1.93733 43.47 1.83745C43.3708 1.75769 43.23 1.69731 43.0302 1.69731C42.8304 1.69731 42.6724 1.75768 42.5509 1.85682C42.5173 1.89087 42.4912 1.9315 42.4741 1.97614C42.4571 2.02079 42.4494 2.06849 42.4517 2.11623C42.4517 2.21611 42.4913 2.29588 42.5509 2.35626C42.6306 2.45614 42.8505 2.55603 43.1897 2.63579C43.5289 2.73567 43.7883 2.83556 43.9485 2.9347C44.1088 3.05471 44.2281 3.1941 44.3287 3.37375C44.4085 3.53326 44.4688 3.77329 44.4688 4.03269C44.4688 4.27197 44.4092 4.49186 44.2884 4.69164C44.1954 4.89452 44.0327 5.0574 43.83 5.15081C43.5927 5.26157 43.333 5.31615 43.0712 5.31033C42.6523 5.31033 42.3124 5.19032 42.0723 4.95104C41.8524 4.71251 41.713 4.35247 41.6534 3.8933ZM45.0473 5.23131V1.07861H46.1654C46.5843 1.07861 46.8646 1.09874 46.9839 1.13899C47.1851 1.19863 47.364 1.33877 47.4833 1.55792C47.6234 1.75769 47.6831 2.03722 47.6831 2.35626C47.6831 2.61566 47.6436 2.83555 47.5638 2.99433C47.5042 3.17397 47.4035 3.31411 47.2843 3.414C47.1785 3.50311 47.0565 3.57095 46.925 3.61377C46.7461 3.65327 46.5061 3.67415 46.2071 3.67415H45.7472V5.23131H45.0473ZM45.7457 1.77781V2.95557H46.1259C46.4054 2.95557 46.5843 2.93544 46.6648 2.89519C46.7134 2.87916 46.7581 2.85309 46.796 2.81867C46.8339 2.78426 46.8641 2.74226 46.8847 2.69542C46.9412 2.59859 46.9689 2.48765 46.9645 2.37564C46.9671 2.24224 46.9322 2.11079 46.8639 1.99622C46.7949 1.90517 46.6958 1.84152 46.5843 1.81658C46.4197 1.78618 46.2523 1.77294 46.0849 1.77707H45.7457V1.77781ZM48.1221 3.19485C48.1221 2.7558 48.1631 2.39651 48.2824 2.11698C48.3621 1.91721 48.4613 1.71744 48.6014 1.55792C48.7415 1.37827 48.8809 1.25826 49.0412 1.1785C49.2611 1.05849 49.4996 1.01823 49.7792 1.01823C50.2987 1.01823 50.6975 1.19788 50.9979 1.57729C51.3169 1.95671 51.4563 2.49565 51.4563 3.15459C51.4563 3.83367 51.3162 4.35247 50.9979 4.73189C50.8585 4.91655 50.6772 5.06538 50.4689 5.16609C50.2606 5.2668 50.0313 5.3165 49.8 5.31108C49.2805 5.31108 48.8817 5.1113 48.5627 4.75202C48.2615 4.37334 48.1221 3.85379 48.1221 3.19485ZM48.8414 3.15459C48.8414 3.6339 48.9212 3.99318 49.1008 4.23246C49.2797 4.47249 49.5198 4.59175 49.8 4.59175C50.0803 4.59175 50.2995 4.47249 50.4784 4.23246C50.6588 3.99318 50.7378 3.6339 50.7378 3.15459C50.7378 2.67529 50.6595 2.316 50.4784 2.07673C50.3181 1.83745 50.0796 1.73756 49.8 1.73756C49.5004 1.73756 49.2805 1.83745 49.1008 2.07673C48.9212 2.31675 48.8414 2.67604 48.8414 3.15459ZM52.0147 5.23131V1.07861H53.4719C53.8312 1.07861 54.1108 1.11812 54.271 1.19863C54.4499 1.25826 54.5692 1.39839 54.6698 1.59817C54.769 1.77781 54.8301 1.99771 54.8301 2.23699C54.8301 2.55677 54.7503 2.81617 54.5901 3.01594C54.4499 3.21571 54.2099 3.35511 53.9117 3.39536C54.072 3.51537 54.1913 3.63464 54.2904 3.75465C54.391 3.87466 54.5103 4.11394 54.6907 4.43372L55.1096 5.23206H54.271L53.7716 4.33384C53.5912 4.01406 53.472 3.81429 53.4123 3.7144C53.3326 3.63464 53.2722 3.57426 53.1924 3.55488C53.1127 3.51537 53.0135 3.49525 52.8331 3.49525H52.693V5.23206H52.0147V5.23131ZM52.693 2.83556H53.2125C53.5517 2.83556 53.7515 2.81543 53.8514 2.7953C53.9291 2.75675 53.992 2.6936 54.0303 2.61566C54.0899 2.5359 54.11 2.41589 54.11 2.29662C54.1108 2.17587 54.0758 2.05759 54.0094 1.95671C53.9791 1.91402 53.9406 1.87788 53.896 1.85047C53.8514 1.82305 53.8017 1.80494 53.75 1.7972C53.6903 1.7972 53.5301 1.77781 53.2506 1.77781H52.6915V2.83556H52.693ZM56.2471 5.23131V1.77781H55.2296V1.07861H57.9638V1.77781H56.9463V5.23131H56.2471ZM58.4237 5.23131V1.07861H60.979V1.77781H59.1222V2.71554H60.8389V3.41474H59.1222V4.53212H61.0386V5.23131H58.4237ZM62.9745 5.23131V1.07861H65.5313V1.77781H63.6737V2.71554H65.3919V3.41474H63.6737V4.53212H65.5909V5.23131H62.9745ZM68.3064 5.23131V1.77781H67.2681V1.07861H70.0231V1.77781H68.9848V5.23131H68.3064ZM70.4622 1.07861H71.1614V3.33424C71.1614 3.69353 71.1614 3.91343 71.18 4.03344C71.2001 4.18967 71.2786 4.33246 71.3999 4.43298C71.5005 4.53286 71.6593 4.5925 71.8583 4.5925C72.0596 4.5925 72.199 4.55299 72.2981 4.4531C72.3966 4.35679 72.4601 4.23033 72.4785 4.09381C72.4971 3.95367 72.518 3.7144 72.518 3.37524V1.07936H73.1963V3.25522C73.1963 3.77403 73.1964 4.1132 73.1568 4.31297C73.1203 4.50575 73.0456 4.68925 72.9369 4.85265C72.8363 4.99279 72.6969 5.09193 72.5381 5.19181C72.3578 5.27157 72.1379 5.31182 71.8785 5.31182C71.5393 5.31182 71.3008 5.27157 71.1196 5.17169C70.9643 5.07942 70.8287 4.95731 70.7208 4.81239C70.6256 4.67346 70.5578 4.51761 70.5211 4.35322C70.4801 4.11394 70.4614 3.77478 70.4614 3.29547V1.07861H70.4622ZM73.9365 5.23131V1.07861H75.4125C75.7718 1.07861 76.0513 1.11812 76.2116 1.19863C76.3718 1.25826 76.5112 1.39839 76.6103 1.59817C76.711 1.77781 76.7706 1.99771 76.7706 2.23699C76.7706 2.55677 76.6908 2.81617 76.5306 3.01594C76.3904 3.21571 76.1519 3.35511 75.8523 3.39536C76.0125 3.51537 76.1318 3.63464 76.2324 3.75465C76.3316 3.87466 76.4523 4.11394 76.6111 4.43372L77.0509 5.23206H76.2123L75.7129 4.33384C75.534 4.01406 75.4132 3.81429 75.3342 3.7144C75.2731 3.63464 75.2134 3.57426 75.1329 3.55488C75.0547 3.51537 74.9332 3.49525 74.7751 3.49525H74.635V5.23206H73.9365V5.23131ZM74.635 2.83556H75.1531C75.4922 2.83556 75.692 2.81543 75.7718 2.7953C75.8555 2.75781 75.9254 2.69498 75.9715 2.61566C76.0218 2.51669 76.0491 2.40762 76.0513 2.29662C76.0518 2.17612 76.0174 2.05805 75.9521 1.95671C75.9216 1.914 75.8827 1.87787 75.8379 1.85047C75.7931 1.82307 75.7432 1.80495 75.6912 1.7972C75.6316 1.7972 75.4728 1.77781 75.1732 1.77781H74.6342V2.83556H74.635ZM77.3893 5.23131V1.07861H78.0885V5.23131H77.3893ZM78.5879 3.8933L79.2663 3.81354C79.3058 4.07369 79.3855 4.27271 79.5063 4.41285C79.6255 4.53286 79.8045 4.61263 80.0042 4.61263C80.2241 4.61263 80.4045 4.55224 80.5238 4.43298C80.6218 4.32235 80.6785 4.18115 80.684 4.03344C80.6883 3.94034 80.6601 3.84866 80.6043 3.77403C80.5633 3.71366 80.4835 3.65402 80.3643 3.59439C80.1765 3.53904 79.9901 3.47914 79.8052 3.41474C79.4265 3.31486 79.1664 3.17472 79.0262 3.0152C78.8154 2.78747 78.701 2.48689 78.7072 2.17661C78.7072 1.95671 78.7467 1.75768 78.8473 1.57729C78.948 1.3969 79.0859 1.25751 79.2871 1.15837C79.466 1.05849 79.7061 1.01823 79.9655 1.01823C80.4053 1.01823 80.7243 1.11812 80.9434 1.35814C81.1633 1.5773 81.2625 1.89708 81.2826 2.2765L80.5834 2.31675C80.571 2.14313 80.5089 1.97674 80.4045 1.83745C80.2709 1.74122 80.1092 1.69194 79.9446 1.69731C79.7456 1.69731 79.5853 1.75768 79.4862 1.85682C79.4064 1.91646 79.3654 1.99696 79.3654 2.11623C79.3654 2.21611 79.4064 2.29588 79.466 2.35626C79.5667 2.45614 79.7657 2.55603 80.1048 2.63579C80.444 2.73567 80.7034 2.83556 80.8637 2.9347C81.0239 3.05471 81.1432 3.1941 81.2438 3.37375C81.343 3.53326 81.3825 3.77329 81.3825 4.03269C81.3825 4.27197 81.3229 4.49186 81.2237 4.69164C81.1167 4.89168 80.9489 5.0525 80.7444 5.15081C80.5446 5.2507 80.3046 5.31033 80.005 5.31033C79.5667 5.31033 79.2275 5.19032 79.0076 4.95104C78.7668 4.71251 78.6267 4.35247 78.5879 3.8933ZM81.9609 5.23131V1.07861H82.9993L83.618 3.91342L84.2367 1.07861H85.2952V5.23131H84.637V1.95671L83.9571 5.23131H83.2788L82.6005 1.95671V5.23131H81.9609ZM85.8334 3.19485C85.8334 2.7558 85.8945 2.39651 85.9936 2.11698C86.0734 1.91721 86.174 1.71744 86.3127 1.55792C86.4535 1.37827 86.5922 1.25826 86.7524 1.1785C86.9723 1.05849 87.2318 1.01823 87.5113 1.01823C88.0107 1.01823 88.4095 1.19788 88.73 1.57729C89.0282 1.95671 89.1885 2.49565 89.1885 3.15459C89.1885 3.83367 89.0282 4.35247 88.73 4.73189C88.4304 5.1113 88.0107 5.31108 87.5113 5.31108C86.9932 5.31108 86.5929 5.1113 86.294 4.75202C85.9936 4.37334 85.8334 3.85379 85.8334 3.19485ZM86.5527 3.15459C86.5527 3.6339 86.6533 3.99318 86.8322 4.23246C87.0111 4.47249 87.231 4.59175 87.5105 4.59175C87.7901 4.59175 88.01 4.47249 88.1904 4.23246C88.3693 3.99318 88.4699 3.6339 88.4699 3.15459C88.4699 2.67529 88.3693 2.316 88.209 2.07673C88.0301 1.83745 87.7901 1.73756 87.5098 1.73756C87.2295 1.73756 86.9917 1.83745 86.8106 2.07673C86.6332 2.31675 86.5527 2.67604 86.5527 3.15459ZM0.627304 33.8001V29.6272H1.34588V33.8001H0.627304ZM2.04433 33.8001V29.6272H2.74354L4.20082 32.4024V29.6272H4.85976V33.8001H4.14119L2.70328 31.0845V33.8001H2.04433ZM5.43821 32.4427L6.13741 32.3629C6.17691 32.6424 6.27754 32.8422 6.39681 32.9622C6.53695 33.1024 6.69647 33.162 6.91636 33.162C7.15564 33.162 7.33529 33.1024 7.4553 32.9823C7.55518 32.8631 7.61481 32.7431 7.61481 32.5835C7.61925 32.4996 7.59849 32.4163 7.55518 32.3443C7.49007 32.2583 7.39918 32.1953 7.29578 32.1646C7.21602 32.1244 7.01625 32.0647 6.71659 31.9649C6.33718 31.8642 6.05765 31.7256 5.89813 31.5653C5.68669 31.338 5.57223 31.0371 5.57909 30.7267C5.57909 30.5068 5.61934 30.3078 5.71923 30.1281C5.83924 29.9485 5.97863 29.8076 6.1784 29.7092C6.35805 29.6086 6.59732 29.5691 6.8776 29.5691C7.31665 29.5691 7.65582 29.6884 7.89584 29.9083C8.11499 30.1475 8.235 30.4472 8.235 30.8259L7.51642 30.8661C7.49704 30.647 7.41654 30.4867 7.31665 30.4077C7.21677 30.307 7.07737 30.2675 6.8776 30.2675C6.65845 30.2675 6.49819 30.307 6.37892 30.4077C6.29916 30.4673 6.25891 30.5672 6.25891 30.6671C6.25891 30.767 6.29841 30.8467 6.37892 30.9272C6.45868 31.0062 6.67783 31.1061 7.03787 31.206C7.37703 31.2858 7.63643 31.3857 7.81608 31.5057C7.9756 31.6056 8.11574 31.745 8.1955 31.9246C8.29538 32.1042 8.33563 32.3234 8.33563 32.5835C8.33563 32.8228 8.29538 33.0427 8.17612 33.2425C8.05685 33.4624 7.89658 33.6219 7.69681 33.7218C7.47766 33.8217 7.21751 33.8619 6.9186 33.8619C6.45942 33.8619 6.12026 33.7427 5.88024 33.5026C5.63798 33.2604 5.49858 32.9018 5.43821 32.4427ZM9.75117 33.8001V30.3458H8.69269V29.6272H11.5275V30.3458H10.469V33.8001H9.75117ZM11.9665 33.8001V29.6272H12.6859V33.8001H11.9665ZM14.1827 33.8001V30.3458H13.1242V29.6272H15.9597V30.3458H14.9012V33.8001H14.1827ZM16.4189 29.6272H17.1375V31.8829C17.1375 32.2414 17.1375 32.4822 17.1576 32.5821C17.1971 32.7416 17.2575 32.881 17.3768 32.9809C17.4968 33.1009 17.6563 33.1411 17.8561 33.1411C18.0558 33.1411 18.2154 33.1009 18.3152 33.001C18.4151 32.9011 18.4748 32.7811 18.4949 32.6417C18.515 32.5015 18.5351 32.2623 18.5351 31.9425V29.6272H19.2537V31.8225C19.2537 32.3219 19.2336 32.6618 19.1933 32.881C19.1531 33.0807 19.0733 33.2604 18.9742 33.3998C18.875 33.5392 18.7342 33.6599 18.5553 33.7397C18.3756 33.8187 18.1557 33.8589 17.8762 33.8589C17.537 33.8589 17.2769 33.8187 17.098 33.7188C16.9248 33.6447 16.7786 33.5193 16.6791 33.3595C16.5844 33.2205 16.5167 33.065 16.4793 32.9011C16.439 32.6618 16.4189 32.3219 16.4189 31.8426V29.6272ZM20.8109 33.8001V30.3458H19.7531V29.6272H22.5872V30.3458H21.5295V33.8001H20.8109ZM22.8272 31.7435C22.8272 31.3245 22.8667 30.9645 22.9867 30.6656C23.0665 30.4658 23.1664 30.2668 23.3065 30.1065C23.4459 29.9269 23.6054 29.8069 23.7657 29.7271C24.0113 29.6207 24.2763 29.5663 24.5439 29.5676C25.0627 29.5676 25.4824 29.7465 25.8022 30.1267C26.122 30.5053 26.2807 31.0443 26.2807 31.7241C26.2807 32.383 26.122 32.9212 25.8022 33.3006C25.5025 33.68 25.0836 33.8597 24.5439 33.8597C24.0251 33.8597 23.6054 33.68 23.2857 33.3006C22.9674 32.9212 22.8272 32.4024 22.8272 31.7435ZM23.5659 31.704C23.5659 32.1833 23.6457 32.5425 23.8455 32.7818C24.0251 33.0211 24.2644 33.1411 24.5447 33.1411C24.8443 33.1411 25.0635 33.0211 25.2632 32.7818C25.4429 32.5425 25.5226 32.1825 25.5226 31.704C25.5226 31.2254 25.4429 30.8654 25.2632 30.6261C25.1779 30.5178 25.0686 30.4308 24.9439 30.3719C24.8192 30.3131 24.6825 30.284 24.5447 30.2869C24.2458 30.2869 24.0057 30.4069 23.8261 30.6462C23.6457 30.8855 23.5659 31.2247 23.5659 31.704ZM28.2181 29.6272H29.6552C29.9347 29.6272 30.1345 29.6466 30.2739 29.6675C30.4141 29.7077 30.5333 29.7674 30.6526 29.8464C30.7532 29.9261 30.8538 30.0469 30.9321 30.1863C30.9932 30.3458 31.0327 30.5053 31.0327 30.6857C31.0327 30.8855 30.9932 31.0644 30.8926 31.2247C30.8162 31.3809 30.6898 31.5072 30.5333 31.5832C30.7532 31.663 30.9135 31.7837 31.0327 31.9634C31.152 32.143 31.2116 32.3428 31.2116 32.5821C31.2116 32.7818 31.1721 32.9615 31.0924 33.1411C31.0126 33.32 30.9135 33.4609 30.7927 33.56C30.6525 33.6785 30.478 33.7487 30.2948 33.7606C30.1942 33.7799 29.8945 33.7799 29.4361 33.8008H28.2188V29.6272H28.2181ZM28.9359 30.3264V31.2843H29.4152C29.6947 31.2843 29.8751 31.2843 29.9347 31.2649C30.054 31.2649 30.1546 31.2045 30.2344 31.1248C30.294 31.045 30.3335 30.9451 30.3335 30.805C30.3335 30.6649 30.294 30.5657 30.2344 30.4852C30.1733 30.4062 30.0935 30.3659 29.9735 30.3451C29.8938 30.3257 29.694 30.3257 29.3548 30.3257H28.9359V30.3264ZM28.9359 31.9835V33.1016H29.6142C29.8751 33.1016 30.0331 33.0815 30.0935 33.0614C30.1455 33.0538 30.1955 33.0358 30.2403 33.0084C30.2852 32.9809 30.324 32.9447 30.3544 32.9018C30.4342 32.8221 30.4737 32.7021 30.4737 32.5425C30.4737 32.4233 30.4342 32.3226 30.3939 32.2228C30.3324 32.1421 30.2499 32.0799 30.1554 32.0431C30.0548 32.0036 29.8557 31.9835 29.5166 31.9835H28.9359ZM31.8117 33.8001V29.6272H33.3286C33.7088 29.6272 33.9868 29.6675 34.1672 29.7465C34.3461 29.8263 34.4669 29.947 34.5861 30.146C34.6853 30.3458 34.7263 30.5448 34.7263 30.805C34.7263 31.1039 34.6465 31.364 34.5064 31.5638C34.3461 31.7837 34.1076 31.903 33.787 31.9634C33.9473 32.0632 34.0867 32.1825 34.1873 32.3025C34.2865 32.4427 34.4057 32.6618 34.5861 32.9809L35.0259 33.8001H34.1672L33.6477 32.8817C33.4479 32.5619 33.3286 32.3629 33.269 32.2824C33.1892 32.1825 33.1288 32.143 33.0491 32.1035C32.9693 32.064 32.8493 32.0632 32.6898 32.0632H32.5295V33.8001H31.8117ZM32.5295 31.3842H33.07C33.4091 31.3842 33.629 31.3842 33.7282 31.3439C33.8081 31.3011 33.8766 31.2398 33.9279 31.165C33.9689 31.0853 33.9876 30.9854 33.9876 30.8452C33.9876 30.7051 33.9689 30.606 33.8884 30.5255C33.8622 30.4774 33.825 30.4361 33.78 30.4049C33.735 30.3737 33.6833 30.3535 33.629 30.3458H32.5303V31.3842H32.5295ZM38.6196 33.8001H37.8406L37.541 32.8415H36.1038L35.8041 33.8001H35.0453L36.443 29.6272H37.2018L38.6196 33.8001ZM37.3017 32.143L36.8023 30.606L36.3229 32.143H37.3017ZM38.8186 32.4427L39.5178 32.3629C39.5774 32.6424 39.6579 32.8422 39.7772 32.9622C39.9173 33.1024 40.0769 33.162 40.2968 33.162C40.5353 33.162 40.7157 33.1024 40.8357 32.9823C40.955 32.8631 41.0146 32.7431 41.0146 32.5835C41.0127 32.4978 40.9854 32.4146 40.9363 32.3443C40.8705 32.2584 40.7791 32.1955 40.6754 32.1646C40.5957 32.1244 40.3959 32.0647 40.0977 31.9649C39.7176 31.8642 39.438 31.7256 39.2778 31.5653C39.0661 31.3381 38.9516 31.0372 38.9587 30.7267C38.9587 30.5068 38.9982 30.3078 39.119 30.1281C39.2181 29.9485 39.3575 29.8076 39.5573 29.7092C39.7571 29.6086 39.9762 29.5691 40.2565 29.5691C40.6963 29.5691 41.0355 29.6884 41.2755 29.9083C41.4939 30.1475 41.6146 30.4472 41.6146 30.8259L40.8953 30.8661C40.8752 30.647 40.8156 30.4867 40.6956 30.4077C40.5949 30.307 40.4555 30.2675 40.2558 30.2675C40.0359 30.2675 39.8771 30.307 39.7563 30.4077C39.6781 30.4673 39.6371 30.5672 39.6371 30.6671C39.6371 30.767 39.6781 30.8467 39.7563 30.9272C39.8361 31.0062 40.056 31.1061 40.416 31.206C40.7552 31.2858 41.0146 31.3857 41.195 31.5057C41.3538 31.6056 41.4931 31.745 41.5737 31.9246C41.6743 32.1042 41.7339 32.3234 41.7339 32.5835C41.7339 32.8228 41.6743 33.0427 41.555 33.2425C41.4488 33.4486 41.2806 33.6162 41.0742 33.7218C40.8744 33.8217 40.6158 33.8619 40.2968 33.8619C39.8368 33.8619 39.4977 33.7427 39.2584 33.5026C39.0184 33.2604 38.8782 32.9018 38.8186 32.4427ZM42.3131 33.8001V29.6272H43.0309V33.8001H42.3131ZM43.7294 33.8001V29.6675H44.4487V33.1016H46.2452V33.8001H43.7294ZM46.7647 33.8001V29.6272H49.4005V30.3458H47.4825V31.2649H49.2604V31.9634H47.4825V33.1016H49.4601V33.8001H46.7647ZM50.058 33.8001V29.6272H50.7773V33.8001H50.058ZM51.4556 33.8001V29.6272H52.9725C53.3527 29.6272 53.6322 29.6675 53.8111 29.7465C53.9714 29.8263 54.1108 29.947 54.23 30.146C54.3307 30.3458 54.3702 30.5448 54.3702 30.805C54.3702 31.1039 54.2904 31.364 54.1503 31.5638C53.9915 31.7837 53.7515 31.903 53.4324 31.9634C53.5912 32.0632 53.712 32.1825 53.8312 32.3025C53.9304 32.4427 54.0511 32.6618 54.23 32.9809L54.6698 33.8001H53.8111L53.293 32.8817C53.0933 32.5619 52.9725 32.3629 52.9129 32.2824C52.8331 32.1825 52.7727 32.143 52.693 32.1035C52.6132 32.064 52.4932 32.0632 52.3352 32.0632H52.1749V33.8001H51.4556ZM52.1749 31.3842H52.7139C53.053 31.3842 53.2729 31.3842 53.3527 31.3439C53.4417 31.3067 53.5181 31.2446 53.5726 31.165C53.6121 31.0853 53.6322 30.9854 53.6322 30.8452C53.6322 30.7051 53.6121 30.606 53.5316 30.5255C53.5053 30.4774 53.4682 30.4361 53.4231 30.4049C53.3781 30.3737 53.3264 30.3535 53.2722 30.3458H52.1749V31.3842ZM54.9091 31.7435C54.9091 31.3245 54.9687 30.9645 55.0694 30.6656C55.1491 30.4658 55.2691 30.2668 55.4085 30.1065C55.5487 29.9269 55.7082 29.8069 55.8685 29.7271C56.1072 29.6206 56.3659 29.5663 56.6273 29.5676C57.1662 29.5676 57.5851 29.7465 57.9042 30.1267C58.2038 30.5053 58.3641 31.0443 58.3641 31.7241C58.3641 32.383 58.2038 32.9212 57.9042 33.3006C57.5851 33.68 57.1662 33.8597 56.6459 33.8597C56.107 33.8597 55.6881 33.68 55.3892 33.3006C55.0694 32.9212 54.9091 32.4024 54.9091 31.7435ZM55.6486 31.704C55.6486 32.1833 55.7477 32.5425 55.9281 32.7818C56.1279 33.0211 56.347 33.1411 56.6459 33.1411C56.9255 33.1411 57.1655 33.0211 57.3451 32.7818C57.5255 32.5425 57.6246 32.1825 57.6246 31.704C57.6246 31.2254 57.5255 30.8654 57.3652 30.6261C57.2799 30.5176 57.1704 30.4306 57.0456 30.3717C56.9207 30.3128 56.7839 30.2838 56.6459 30.2869C56.3478 30.2869 56.107 30.4069 55.9281 30.6462C55.7477 30.8855 55.6486 31.2247 55.6486 31.704ZM60.3208 29.6272H61.6178C61.9175 29.6272 62.1568 29.6675 62.2962 29.707C62.5161 29.786 62.695 29.9068 62.8351 30.1058C62.9954 30.2854 63.1146 30.5046 63.1743 30.7647C63.254 31.0443 63.295 31.364 63.295 31.7628C63.295 32.1027 63.254 32.3823 63.1944 32.6417C63.0952 32.9406 62.9745 33.1814 62.8157 33.3804C62.6691 33.5251 62.4914 33.6345 62.2962 33.7002C62.1359 33.7598 61.9369 33.8001 61.6573 33.8001H60.3208V29.6272ZM61.0386 30.3458V33.1009H61.5776C61.7788 33.1009 61.9182 33.0807 61.9965 33.0606C62.1173 33.0204 62.2164 32.9607 62.2962 32.881C62.3759 32.8012 62.4363 32.6618 62.4751 32.4822C62.5362 32.2817 62.5548 32.0424 62.5548 31.7233C62.5548 31.4036 62.5362 31.1441 62.4751 30.9846C62.442 30.8313 62.3736 30.6879 62.2753 30.5657C62.184 30.4716 62.0653 30.4088 61.9361 30.3861C61.837 30.3458 61.6566 30.3458 61.3584 30.3458H61.0386ZM63.9137 33.8001V29.6272H66.5487V30.3458H64.6315V31.2649H66.4295V31.9634H64.6315V33.1016H66.6292V33.8001H63.9137ZM69.4231 33.8001V30.3458H68.3661V29.6272H71.2009V30.3458H70.1424V33.8001H69.4231ZM71.6593 29.6272H72.3786V31.8829C72.3786 32.2414 72.3786 32.4822 72.3988 32.5821C72.4383 32.7416 72.4979 32.881 72.6187 32.9809C72.7379 33.1009 72.8982 33.1411 73.098 33.1411C73.2977 33.1411 73.4572 33.1009 73.5564 33.001C73.6549 32.9047 73.7184 32.7782 73.7368 32.6417C73.7648 32.4097 73.778 32.1762 73.7763 31.9425V29.6272H74.4956V31.8225C74.4956 32.3219 74.4755 32.6618 74.4345 32.881C74.395 33.0807 74.3353 33.2604 74.2161 33.3998C74.1093 33.5484 73.9646 33.6658 73.7972 33.7397C73.6369 33.8187 73.3969 33.8589 73.1173 33.8589C72.7782 33.8589 72.5188 33.8187 72.3399 33.7188C72.1665 33.6452 72.0201 33.5197 71.9209 33.3595C71.8257 33.2208 71.7579 33.0652 71.7212 32.9011C71.6802 32.6618 71.66 32.3219 71.66 31.8426V29.6272H71.6593ZM75.2537 33.8001V29.6272H76.7706C77.1493 29.6272 77.4288 29.6675 77.6092 29.7465C77.7695 29.8263 77.9074 29.947 78.008 30.146C78.1273 30.3458 78.1683 30.5448 78.1683 30.805C78.1683 31.1039 78.0885 31.364 77.9282 31.5638C77.7695 31.7837 77.5496 31.903 77.229 31.9634C77.3893 32.0632 77.5086 32.1825 77.6092 32.3025C77.7083 32.4427 77.8477 32.6618 78.0281 32.9809L78.4664 33.8001H77.6092L77.0703 32.8817C76.8899 32.5619 76.7706 32.3629 76.6901 32.2824C76.6305 32.1825 76.55 32.143 76.4903 32.1035C76.4106 32.0632 76.2906 32.0632 76.1102 32.0632H75.97V33.8001H75.2537ZM75.9715 31.3842H76.512C76.8511 31.3842 77.071 31.3842 77.1493 31.3439C77.2368 31.3129 77.3086 31.2486 77.3491 31.165C77.4102 31.0853 77.4288 30.9854 77.4288 30.8452C77.4288 30.7051 77.3893 30.606 77.3297 30.5255C77.3012 30.4792 77.2635 30.4394 77.2188 30.4084C77.1741 30.3775 77.1236 30.3562 77.0703 30.3458H75.9708V31.3842H75.9715ZM78.8265 33.8001V29.6272H79.5458V33.8001H78.8265ZM80.0452 32.4427L80.7444 32.3629C80.7839 32.6424 80.8846 32.8422 81.0038 32.9622C81.144 33.1024 81.3035 33.162 81.5219 33.162C81.7619 33.162 81.9423 33.1024 82.0623 32.9823C82.1614 32.8631 82.2211 32.7431 82.2211 32.5835C82.2258 32.4996 82.2051 32.4162 82.1614 32.3443C82.0963 32.2583 82.0054 32.1953 81.902 32.1646C81.8014 32.1244 81.6225 32.0647 81.3229 31.9649C80.9442 31.8642 80.6646 31.7256 80.5044 31.5653C80.2927 31.3381 80.1782 31.0372 80.1853 30.7267C80.1853 30.5068 80.2249 30.3078 80.3255 30.1281C80.4448 29.9485 80.5849 29.8076 80.7839 29.7092C80.9643 29.6086 81.2028 29.5691 81.4831 29.5691C81.9229 29.5691 82.2621 29.6884 82.482 29.9083C82.7205 30.1475 82.8398 30.4472 82.8398 30.8259L82.1219 30.8661C82.1018 30.647 82.0213 30.4867 81.9222 30.4077C81.8215 30.307 81.6821 30.2675 81.4824 30.2675C81.2625 30.2675 81.1022 30.307 80.9829 30.4077C80.9032 30.4673 80.8637 30.5672 80.8637 30.6671C80.8637 30.767 80.9032 30.8467 80.9829 30.9272C81.0627 31.0062 81.2826 31.1061 81.6426 31.206C81.9818 31.2858 82.2412 31.3857 82.4216 31.5057C82.5804 31.6056 82.7198 31.745 82.8003 31.9246C82.9009 32.1042 82.9404 32.3234 82.9404 32.5835C82.9404 32.8228 82.9009 33.0427 82.7801 33.2425C82.6609 33.4624 82.5006 33.6219 82.3008 33.7218C82.0809 33.8217 81.8215 33.8619 81.5219 33.8619C81.0634 33.8619 80.7243 33.7427 80.4835 33.5026C80.2442 33.2604 80.1048 32.9018 80.0452 32.4427ZM83.5375 33.8001V29.6272H84.6168L85.2743 32.462L85.9139 29.6272H86.9925V33.8001H86.3127V30.5255L85.6149 33.8001H84.9165L84.2173 30.5255V33.8001H83.5375ZM87.5515 31.7435C87.5515 31.3245 87.6112 30.9645 87.7103 30.6656C87.7901 30.4658 87.9116 30.2668 88.0495 30.1065C88.1904 29.9269 88.3491 29.8069 88.5094 29.7271C88.7546 29.6186 89.0203 29.5642 89.2884 29.5676C89.8064 29.5676 90.2261 29.7465 90.5466 30.1267C90.8656 30.5053 91.005 31.0443 91.005 31.7241C91.005 32.383 90.8649 32.9212 90.5466 33.3006C90.2261 33.68 89.8072 33.8597 89.2884 33.8597C88.7688 33.8597 88.329 33.68 88.0301 33.3006C87.7103 32.9212 87.5515 32.4024 87.5515 31.7435ZM88.2895 31.704C88.2895 32.1833 88.3901 32.5425 88.569 32.7818C88.7688 33.0211 89.0088 33.1411 89.2884 33.1411C89.5679 33.1411 89.8064 33.0211 89.9875 32.7818C90.1873 32.5425 90.2671 32.1825 90.2671 31.704C90.2671 31.2254 90.1873 30.8654 90.0062 30.6261C89.921 30.5178 89.8118 30.4308 89.6872 30.372C89.5626 30.3131 89.4261 30.284 89.2884 30.2869C88.9887 30.2869 88.7479 30.4069 88.569 30.6462C88.3901 30.8855 88.2895 31.2247 88.2895 31.704ZM1.44577 26.1141V10.0422H9.97033V12.7578H3.76102V16.3112H9.53128V19.0267H3.76102V23.3986H10.1701V26.1141H1.44577ZM12.1067 26.1141V10.0422H15.5803L17.6563 21.0028L19.7129 10.0422H23.2066V26.1141H21.0502V13.4562L18.7744 26.1141H16.5389L14.2624 13.4562V26.1141H12.1067ZM25.5025 10.0422H30.0935C31.0119 10.0422 31.6924 10.0817 32.13 10.2017C32.5698 10.3016 32.9686 10.5215 33.3279 10.8607C33.6872 11.1998 33.9667 11.6389 34.206 12.198C34.446 12.757 34.5653 13.3958 34.5653 14.0749C34.5683 14.7906 34.4184 15.4986 34.1255 16.1516C33.8273 16.7897 33.4471 17.2496 32.9477 17.5687C33.6469 17.8482 34.1866 18.3469 34.5653 19.026C34.9246 19.705 35.1243 20.5235 35.1243 21.4411C35.1243 22.1798 35.0051 22.8984 34.765 23.5774C34.5056 24.2766 34.1873 24.8148 33.7677 25.2345C33.348 25.6542 32.8284 25.8935 32.2098 25.9933C31.8296 26.0537 30.8919 26.094 29.4145 26.1133H25.5018V10.0422H25.5025ZM27.8178 12.7175V16.4312H29.3347C30.253 16.4312 30.8121 16.411 31.032 16.3708C31.4308 16.3112 31.7312 16.1114 31.9712 15.7923C32.1896 15.4726 32.3104 15.0536 32.3104 14.5341C32.3104 14.0354 32.2098 13.6359 32.0107 13.3369C31.811 13.0172 31.5314 12.8375 31.1311 12.7779C30.9127 12.7376 30.253 12.7175 29.1558 12.7175H27.8178ZM27.8178 19.1057V23.3986H29.9743C30.8128 23.3986 31.3324 23.3583 31.5508 23.2987C31.9101 23.2189 32.1896 22.9998 32.4095 22.6598C32.6093 22.3207 32.7301 21.8615 32.7301 21.3032C32.7301 20.8231 32.6503 20.4042 32.4692 20.0651C32.3231 19.7428 32.0693 19.4816 31.7513 19.3264C31.4308 19.1862 30.7525 19.1065 29.694 19.1065H27.8178V19.1057ZM37.0818 26.1141V10.043H41.9732C43.1904 10.043 44.0887 10.1831 44.6276 10.482C45.1867 10.7615 45.6466 11.2804 45.9656 12.0191C46.3048 12.7578 46.4651 13.5964 46.4651 14.5348C46.4651 15.7528 46.225 16.7509 45.7062 17.5299C45.2068 18.3089 44.448 18.8075 43.4499 19.0073C43.9493 19.4262 44.3682 19.8653 44.6887 20.364C45.0078 20.8634 45.4476 21.7221 46.0051 22.9796L47.4028 26.1141H44.6276L42.9504 22.6002C42.3727 21.3628 41.9531 20.5839 41.7332 20.2447C41.5133 19.9249 41.2934 19.7058 41.034 19.5858C40.7939 19.4657 40.4153 19.4061 39.8763 19.4061H39.397V26.1141H37.0818ZM39.3985 16.83H41.1152C42.2333 16.83 42.9325 16.7703 43.2113 16.6302C43.4707 16.5102 43.6906 16.2709 43.8501 15.9511C44.0089 15.6313 44.0887 15.2325 44.0887 14.7532C44.0887 14.2143 43.9895 13.7753 43.7696 13.4353C43.6754 13.2797 43.5508 13.1447 43.4033 13.0383C43.2557 12.9319 43.0883 12.8562 42.9109 12.8159C42.7112 12.7764 42.1521 12.7563 41.2136 12.7563H39.3978V16.83H39.3985ZM59.0014 26.1141H56.4872L55.4883 22.4608H50.8965L49.9588 26.1141H47.4825L51.955 10.043H54.4112L59.0014 26.1141ZM54.7503 19.7453L53.1529 13.7961L51.6159 19.7453H54.7503ZM61.638 26.1141V12.7578H58.224V10.0422H67.3471V12.7578H63.9532V26.1141H61.638ZM68.8245 10.0422H71.1405V18.7464C71.1405 20.1239 71.18 21.0229 71.2203 21.4217C71.3194 22.0807 71.5594 22.6188 71.9381 23.0191C72.3183 23.4179 72.8177 23.5976 73.4751 23.5976C74.1348 23.5976 74.6134 23.4179 74.9525 23.0393C75.2917 22.6591 75.4915 22.2007 75.5511 21.661C75.6309 21.1019 75.6517 20.2037 75.6517 18.9261V10.0422H77.9677V18.487C77.9677 20.4035 77.9066 21.7616 77.7874 22.56C77.6681 23.3583 77.4281 24.0374 77.0882 24.5763C76.7638 25.1235 76.3033 25.5775 75.7516 25.8942C75.1926 26.214 74.4531 26.3735 73.534 26.3735C72.436 26.3735 71.6183 26.214 71.0384 25.8547C70.4793 25.4961 70.0209 25.0362 69.7019 24.4772C69.3881 23.9171 69.1655 23.3107 69.0422 22.6807C68.902 21.7624 68.8223 20.4042 68.8223 18.6078V10.0422H68.8245ZM80.4239 26.1141V10.043H85.3153C86.5326 10.043 87.4308 10.1831 87.9705 10.482C88.5295 10.7615 88.9879 11.2804 89.307 12.0191C89.6476 12.7578 89.8064 13.5964 89.8064 14.5348C89.8064 15.7528 89.5679 16.7509 89.0476 17.5299C88.5482 18.3089 87.7893 18.8075 86.7927 19.0073C87.2664 19.3997 87.6829 19.8563 88.0301 20.364C88.3491 20.8634 88.7889 21.7221 89.348 22.9796L90.7456 26.1141H87.9705L86.2933 22.6002C85.6932 21.3628 85.2944 20.5839 85.0745 20.2447C84.8561 19.9249 84.6362 19.7058 84.3753 19.5858C84.1368 19.4657 83.738 19.4061 83.2177 19.4061H82.7384V26.1141H80.4239ZM82.7399 16.83H84.4566C85.5747 16.83 86.2739 16.7703 86.5527 16.6302C86.8121 16.5102 87.032 16.2709 87.1915 15.9511C87.3518 15.6313 87.43 15.2325 87.43 14.7532C87.43 14.2143 87.3309 13.7753 87.111 13.4353C87.0169 13.2796 86.8924 13.1445 86.7448 13.038C86.5973 12.9316 86.4297 12.856 86.2523 12.8159C86.0525 12.7764 85.4934 12.7563 84.5565 12.7563H82.7391V16.83H82.7399Z" fill="black"/>
</svg>
